<svg xmlns="http://www.w3.org/2000/svg" xmlns:xlink="http://www.w3.org/1999/xlink" version="1.1" x="0px" y="0px" viewBox="0 0 100 125" enable-background="new 0 0 100 100" xml:space="preserve"><path fill="#000000" d="M78.403,42.15v-7.101c0-1.137-0.812-2.086-1.888-2.3v-4.084c0-4.616-3.094-8.52-7.315-9.754  c-1.899-2.129-3.168-9.839-3.475-15.331C65.616,2.341,64.736,0,62.188,0H35.925c-2.549,0-3.429,2.341-3.54,3.605  c-0.304,5.469-1.572,13.176-3.472,15.305c-4.223,1.234-7.317,5.139-7.317,9.754v42.606c0,4.586,3.054,8.47,7.234,9.73  c1.945,1.996,3.246,9.85,3.557,15.42c0.109,1.237,0.989,3.579,3.538,3.579h26.263c2.549,0,3.429-2.342,3.54-3.604  c0.309-5.549,1.609-13.398,3.555-15.395c4.18-1.261,7.233-5.145,7.233-9.73v-3.453c0-0.009-0.002-0.017-0.002-0.024  c0.838-0.326,1.434-1.14,1.434-2.093V54.951c0-1.009-0.668-1.864-1.585-2.147v-8.331C77.512,44.323,78.403,43.339,78.403,42.15z   M74.952,67.817v3.453c0,4.741-3.857,8.599-8.6,8.599H31.76c-4.742,0-8.6-3.857-8.6-8.599V28.665c0-4.742,3.858-8.6,8.6-8.6h34.593  c4.742,0,8.6,3.858,8.6,8.6v4.134c-2.038,0.675-2.151,4.869-2.151,5.769c0,0.886,0.107,4.935,1.998,5.773v8.554  c-0.791,0.348-1.347,1.138-1.347,2.058V65.7C73.452,66.678,74.08,67.508,74.952,67.817L74.952,67.817z M76.84,35.049V35.7h-0.782  c-0.139,0-0.254,0.076-0.323,0.184c-0.039,0.061-0.068,0.129-0.068,0.207c0,0.078,0.029,0.146,0.068,0.207  c0.069,0.108,0.185,0.184,0.323,0.184h0.782v1.726h-0.782c-0.139,0-0.254,0.076-0.323,0.184c-0.039,0.061-0.068,0.129-0.068,0.207  s0.029,0.146,0.068,0.207c0.069,0.109,0.185,0.184,0.323,0.184h0.782v1.727h-0.782c-0.139,0-0.254,0.076-0.323,0.184  c-0.039,0.061-0.068,0.129-0.068,0.207c0,0.078,0.029,0.146,0.068,0.207c0.069,0.108,0.185,0.184,0.323,0.184h0.782v0.652  c0,0.431-0.351,0.782-0.782,0.782h-0.323h-0.197c-0.531,0-1.173-1.947-1.173-4.365c0-2.382,0.642-4.3,1.173-4.3h0.197h0.323  C76.489,34.267,76.84,34.618,76.84,35.049z M33.781,5.953h30.551c0.1,1.127,0.249,2.507,0.465,3.974h-31.48  C33.533,8.458,33.681,7.077,33.781,5.953z M35.925,1.563h26.263c1.721,0,1.959,1.936,1.979,2.128  c0.02,0.344,0.052,0.854,0.101,1.479h-30.42c0.048-0.615,0.08-1.117,0.098-1.454C33.952,3.629,34.154,1.563,35.925,1.563z   M33.199,10.691c0.028,0.007,0.056,0.018,0.086,0.018h31.631c0.213,1.323,0.482,2.686,0.82,3.974H32.375  C32.715,13.389,32.986,12.019,33.199,10.691z M32.159,15.464h33.795c0.335,1.141,0.73,2.192,1.195,3.071  c-0.264-0.021-0.528-0.034-0.797-0.034H31.76c-0.268,0-0.533,0.014-0.796,0.034C31.429,17.657,31.824,16.605,32.159,15.464z   M32.375,85.317h33.362c-0.339,1.289-0.607,2.651-0.821,3.975h-31.63c-0.03,0-0.058,0.011-0.087,0.018  C32.985,87.98,32.715,86.61,32.375,85.317z M64.332,94.047H33.781c-0.1-1.126-0.249-2.506-0.464-3.974h31.479  C64.58,91.542,64.432,92.924,64.332,94.047z M62.188,98.437H35.925c-1.721,0-1.959-1.937-1.979-2.128  c-0.019-0.344-0.051-0.854-0.1-1.479h30.42c-0.048,0.615-0.08,1.117-0.099,1.454C64.16,96.371,63.958,98.437,62.188,98.437z   M65.954,84.535H32.159c-0.343-1.169-0.75-2.247-1.23-3.139c0.274,0.022,0.551,0.036,0.832,0.036h34.593  c0.28,0,0.558-0.014,0.832-0.036C66.704,82.288,66.297,83.366,65.954,84.535z M76.384,65.7c0,0.365-0.289,0.662-0.649,0.681  c-0.012,0-0.023,0.003-0.034,0.003c-0.377,0-0.685-0.307-0.685-0.684V54.951c0-0.377,0.308-0.685,0.685-0.685  c0.011,0,0.022,0.003,0.034,0.004c0.36,0.019,0.649,0.314,0.649,0.681V65.7z"/><path fill="#000000" d="M64.691,23.193h-31.27c-3.879,0-7.036,3.156-7.036,7.036v39.349c0,3.88,3.157,7.035,7.036,7.035h31.27  c3.879,0,7.035-3.155,7.035-7.035V30.229C71.727,26.349,68.57,23.193,64.691,23.193z M70.163,69.577  c0,3.018-2.454,5.472-5.472,5.472h-31.27c-3.018,0-5.473-2.454-5.473-5.472V30.229c0-3.018,2.455-5.472,5.473-5.472h31.27  c3.018,0,5.472,2.455,5.472,5.472V69.577z"/><circle fill="#000000" cx="33.161" cy="48.209" r="0.782"/><circle fill="#000000" cx="64.952" cy="48.209" r="0.782"/><circle fill="#000000" cx="49.056" cy="32.313" r="0.782"/><circle fill="#000000" cx="49.056" cy="64.104" r="0.782"/><circle fill="#000000" cx="41.109" cy="34.442" r="0.782"/><circle fill="#000000" cx="57.004" cy="61.974" r="0.782"/><circle fill="#000000" cx="35.29" cy="40.26" r="0.782"/><circle fill="#000000" cx="62.822" cy="56.156" r="0.782"/><circle fill="#000000" cx="41.109" cy="61.974" r="0.782"/><circle fill="#000000" cx="57.004" cy="34.442" r="0.781"/><circle fill="#000000" cx="35.29" cy="56.157" r="0.782"/><circle fill="#000000" cx="62.822" cy="40.261" r="0.782"/><path fill="#000000" d="M62.057,37.404c-0.282-0.327-0.775-0.363-1.103-0.081L49.03,47.618l-7.062-4.749  c-0.359-0.24-0.844-0.146-1.085,0.212s-0.146,0.844,0.212,1.085l7.557,5.081c0.004,0.003,0.009,0.003,0.013,0.006v12.292  c0,0.216,0.175,0.391,0.391,0.391c0.216,0,0.391-0.175,0.391-0.391V49.291c0.053-0.027,0.105-0.059,0.152-0.1l12.376-10.684  C62.303,38.225,62.339,37.731,62.057,37.404z"/><text x="0" y="115" fill="#000000" font-size="5px" font-weight="bold" font-family="'Helvetica Neue', Helvetica, Arial-Unicode, Arial, Sans-serif">Created by Joe Mortell</text><text x="0" y="120" fill="#000000" font-size="5px" font-weight="bold" font-family="'Helvetica Neue', Helvetica, Arial-Unicode, Arial, Sans-serif">from the Noun Project</text></svg>